<svg width="19" height="19" viewBox="0 0 19 19" fill="none" xmlns="http://www.w3.org/2000/svg">
<path d="M5.17355 2.375H16.625C16.835 2.375 17.0363 2.45841 17.1848 2.60687C17.3333 2.75534 17.4167 2.9567 17.4167 3.16667V15.8333C17.4167 16.0433 17.3333 16.2447 17.1848 16.3931C17.0363 16.5416 16.835 16.625 16.625 16.625H5.17355C5.04325 16.625 4.91495 16.5929 4.80005 16.5314C4.68515 16.47 4.5872 16.3811 4.51488 16.2727L0.292924 9.93938C0.206126 9.80928 0.159805 9.65639 0.159805 9.5C0.159805 9.34361 0.206126 9.19072 0.292924 9.06062L4.51488 2.72729C4.5872 2.6189 4.68515 2.53003 4.80005 2.46858C4.91495 2.40712 5.04325 2.37498 5.17355 2.375ZM5.59709 3.95833L1.90317 9.5L5.59709 15.0417H15.8333V3.95833H5.59709ZM10.2917 8.38058L12.5305 6.14096L13.6507 7.26117L11.4111 9.5L13.6507 11.7388L12.5305 12.859L10.2917 10.6194L8.05284 12.859L6.93263 11.7388L9.17226 9.5L6.93263 7.26117L8.05284 6.14096L10.2917 8.38058Z" fill="white"/>
</svg>
