<svg width="20" height="14" viewBox="0 0 20 14" fill="none" xmlns="http://www.w3.org/2000/svg">
<path d="M5.81072 8.71064e-09H19.0825C19.3258 8.71065e-09 19.5592 0.0819442 19.7313 0.227806C19.9033 0.373667 20 0.571498 20 0.777778V13.2222C20 13.4285 19.9033 13.6263 19.7313 13.7722C19.5592 13.9181 19.3258 14 19.0825 14H5.81072C5.65971 14 5.51102 13.9684 5.37786 13.9081C5.24469 13.8477 5.13117 13.7604 5.04735 13.6539L0.154279 7.43167C0.0536841 7.30385 0 7.15365 0 7C0 6.84635 0.0536841 6.69615 0.154279 6.56833L5.04735 0.346111C5.13117 0.239621 5.24469 0.152314 5.37786 0.0919373C5.51102 0.0315606 5.65971 -1.91483e-05 5.81072 8.71064e-09ZM6.30159 1.55556L2.02049 7L6.30159 12.4444H18.165V1.55556H6.30159ZM11.7424 5.90022L14.3371 3.69989L15.6354 4.80044L13.0398 7L15.6354 9.19956L14.3371 10.3001L11.7424 8.09978L9.1477 10.3001L7.84943 9.19956L10.4451 7L7.84943 4.80044L9.1477 3.69989L11.7424 5.90022Z" fill="white"/>
</svg>
