<svg width="10" height="10" viewBox="0 0 10 10" fill="none" xmlns="http://www.w3.org/2000/svg">
<path d="M0.75 0.25H8.75C8.88261 0.25 9.00979 0.302678 9.10355 0.396447C9.19732 0.490215 9.25 0.617392 9.25 0.75V8.75C9.25 8.88261 9.19732 9.00979 9.10355 9.10355C9.00979 9.19732 8.88261 9.25 8.75 9.25H0.75C0.617392 9.25 0.490215 9.19732 0.396447 9.10355C0.302678 9.00979 0.25 8.88261 0.25 8.75V0.75C0.25 0.617392 0.302678 0.490215 0.396447 0.396447C0.490215 0.302678 0.617392 0.25 0.75 0.25V0.25ZM1.25 1.25V8.25H8.25V1.25H1.25Z" fill="white"/>
</svg>
