<svg width="14" height="14" viewBox="0 0 14 14" fill="none" xmlns="http://www.w3.org/2000/svg">
<path d="M13.5215 8.40137C13.2576 8.40137 13.043 8.61602 13.043 8.87988V12.0641C13.043 12.6041 12.6041 13.043 12.0641 13.043H1.93594C1.84434 13.043 1.75547 13.0293 1.6707 13.0061L6.64453 8.03223V10.5684C6.64453 10.8322 6.85918 11.0469 7.12305 11.0469C7.38691 11.0469 7.60156 10.8322 7.60156 10.5684V6.87695V6.85371C7.60156 6.84961 7.60156 6.84688 7.6002 6.84277C7.6002 6.83867 7.6002 6.83457 7.59883 6.83047C7.59883 6.82637 7.59746 6.8209 7.59746 6.8168C7.59746 6.81406 7.59609 6.81133 7.59609 6.80723C7.59473 6.80176 7.59473 6.79766 7.59336 6.79219C7.59336 6.78945 7.59199 6.78672 7.59199 6.78398C7.59062 6.77852 7.58926 6.77441 7.58926 6.76895C7.58926 6.76621 7.58789 6.76348 7.58789 6.76074C7.58652 6.75527 7.58516 6.75117 7.58379 6.7457C7.58242 6.74297 7.58242 6.74023 7.58105 6.7375C7.57969 6.7334 7.57832 6.7293 7.57695 6.72383C7.57559 6.72109 7.57559 6.71836 7.57422 6.71426L7.57012 6.70195C7.56875 6.69785 7.56738 6.69512 7.56602 6.69102C7.56465 6.68691 7.56328 6.68418 7.56191 6.68145C7.56055 6.67734 7.55781 6.67324 7.55645 6.67051L7.55234 6.6623C7.54961 6.6582 7.54824 6.6541 7.54551 6.65C7.54414 6.64727 7.54277 6.64453 7.54141 6.64316C7.53867 6.63906 7.53594 6.63496 7.5332 6.62949C7.53184 6.62676 7.53047 6.62539 7.5291 6.62266C7.52637 6.61855 7.52363 6.61445 7.5209 6.60898C7.51953 6.60625 7.51816 6.60488 7.5168 6.60215L7.50859 6.58984C7.50723 6.58711 7.50449 6.58574 7.50312 6.58301C7.50039 6.57891 7.49766 6.57617 7.49492 6.57207C7.49219 6.56934 7.48945 6.5666 7.48672 6.5625C7.48398 6.55977 7.48125 6.55703 7.47988 6.5543C7.47441 6.54883 7.46895 6.54336 7.46348 6.53652C7.45801 6.53105 7.45254 6.52559 7.4457 6.52012C7.44297 6.51738 7.44023 6.51465 7.4375 6.51328C7.43477 6.51055 7.43066 6.50781 7.42793 6.50508C7.42383 6.50234 7.42109 6.49961 7.41699 6.49688C7.41426 6.49551 7.41152 6.49277 7.41016 6.49141L7.39785 6.4832C7.39512 6.48184 7.39375 6.48047 7.39102 6.4791L7.37871 6.4709C7.37598 6.46953 7.37461 6.46816 7.37188 6.4668C7.36777 6.46406 7.36367 6.46133 7.3582 6.45996C7.35547 6.45859 7.35273 6.45723 7.35137 6.45586C7.34727 6.45313 7.34316 6.45176 7.33906 6.44902L7.33086 6.44492C7.32676 6.44355 7.32266 6.44082 7.31992 6.43945C7.31719 6.43809 7.31309 6.43672 7.31035 6.43535C7.30625 6.43398 7.30352 6.43262 7.29941 6.43125L7.28711 6.42715C7.28437 6.42578 7.28027 6.42441 7.27754 6.42441C7.27344 6.42305 7.26934 6.42168 7.26387 6.42031C7.26113 6.41895 7.2584 6.41895 7.25566 6.41758C7.25156 6.41621 7.24609 6.41484 7.24062 6.41348C7.23789 6.41348 7.23516 6.41211 7.23242 6.41211C7.22695 6.41074 7.22285 6.40937 7.21738 6.40937C7.21465 6.40937 7.21191 6.40801 7.20918 6.40801C7.20371 6.40664 7.19961 6.40664 7.19414 6.40527C7.19141 6.40527 7.1873 6.40391 7.18457 6.40391C7.18047 6.40391 7.175 6.40254 7.1709 6.40254C7.1668 6.40254 7.16269 6.40254 7.15859 6.40117C7.15449 6.40117 7.15176 6.40117 7.14766 6.3998H3.43164C3.16777 6.3998 2.95312 6.61445 2.95312 6.87832C2.95312 7.14219 3.16777 7.35684 3.43164 7.35684H5.96777L0.993945 12.3293C0.970703 12.2445 0.957031 12.1557 0.957031 12.0641V1.93594C0.957031 1.3959 1.3959 0.957031 1.93594 0.957031H5.12012C5.38398 0.957031 5.59863 0.742383 5.59863 0.478516C5.59863 0.214648 5.38398 0 5.12012 0H1.93594C0.868164 0 0 0.868164 0 1.93594V12.0641C0 13.1318 0.868164 14 1.93594 14H12.0641C13.1318 14 14 13.1318 14 12.0641V8.87988C14 8.61602 13.7854 8.40137 13.5215 8.40137Z" fill="white"/>
<path d="M12.3006 0H10.2307C9.29277 0 8.53125 0.761524 8.53125 1.69941V3.76934C8.53125 4.70859 9.29277 5.46875 10.2307 5.46875H12.3006C13.2398 5.46875 14 4.70723 14 3.76934V1.69941C14 0.761524 13.2385 0 12.3006 0ZM13.043 3.76934C13.043 4.17949 12.7094 4.51172 12.3006 4.51172H10.2307C9.82051 4.51172 9.48828 4.17813 9.48828 3.76934V1.69941C9.48828 1.28926 9.82187 0.957031 10.2307 0.957031H12.3006C12.7107 0.957031 13.043 1.29063 13.043 1.69941V3.76934V3.76934Z" fill="white"/>
</svg>
